<mxfile host="app.diagrams.net" modified="2021-04-28T07:36:11.859Z" agent="5.0 (Windows NT 10.0; Win64; x64) AppleWebKit/537.36 (KHTML, like Gecko) Chrome/89.0.4389.128 Safari/537.36" etag="81mCIiObW8DauDREzNyz" version="14.6.6" type="github">
  <diagram id="R2lEEEUBdFMjLlhIrx00" name="Page-1">
    <mxGraphModel dx="1038" dy="556" grid="1" gridSize="10" guides="1" tooltips="1" connect="1" arrows="1" fold="1" page="1" pageScale="1" pageWidth="850" pageHeight="1100" math="0" shadow="0" extFonts="Permanent Marker^https://fonts.googleapis.com/css?family=Permanent+Marker">
      <root>
        <mxCell id="0" />
        <mxCell id="1" parent="0" />
        <mxCell id="2SBFcaYjBEaQ_yufKXcj-10" value="" style="edgeStyle=orthogonalEdgeStyle;rounded=0;orthogonalLoop=1;jettySize=auto;html=1;" edge="1" parent="1" source="2SBFcaYjBEaQ_yufKXcj-2" target="2SBFcaYjBEaQ_yufKXcj-7">
          <mxGeometry relative="1" as="geometry" />
        </mxCell>
        <mxCell id="2SBFcaYjBEaQ_yufKXcj-2" value="Benutzer" style="swimlane;fontStyle=0;childLayout=stackLayout;horizontal=1;startSize=26;horizontalStack=0;resizeParent=1;resizeParentMax=0;resizeLast=0;collapsible=1;marginBottom=0;fillColor=#dae8fc;strokeColor=#6c8ebf;" vertex="1" parent="1">
          <mxGeometry x="160" y="210" width="140" height="78" as="geometry" />
        </mxCell>
        <mxCell id="2SBFcaYjBEaQ_yufKXcj-3" value="Gesellschaft" style="text;strokeColor=none;fillColor=none;align=left;verticalAlign=top;spacingLeft=4;spacingRight=4;overflow=hidden;rotatable=0;points=[[0,0.5],[1,0.5]];portConstraint=eastwest;" vertex="1" parent="2SBFcaYjBEaQ_yufKXcj-2">
          <mxGeometry y="26" width="140" height="26" as="geometry" />
        </mxCell>
        <mxCell id="2SBFcaYjBEaQ_yufKXcj-4" value="Manager" style="text;strokeColor=#9673a6;fillColor=#e1d5e7;align=left;verticalAlign=top;spacingLeft=4;spacingRight=4;overflow=hidden;rotatable=0;points=[[0,0.5],[1,0.5]];portConstraint=eastwest;" vertex="1" parent="2SBFcaYjBEaQ_yufKXcj-2">
          <mxGeometry y="52" width="140" height="26" as="geometry" />
        </mxCell>
        <mxCell id="2SBFcaYjBEaQ_yufKXcj-12" value="" style="edgeStyle=orthogonalEdgeStyle;rounded=0;orthogonalLoop=1;jettySize=auto;html=1;" edge="1" parent="1" source="2SBFcaYjBEaQ_yufKXcj-7" target="2SBFcaYjBEaQ_yufKXcj-11">
          <mxGeometry relative="1" as="geometry" />
        </mxCell>
        <mxCell id="2SBFcaYjBEaQ_yufKXcj-7" value="Opportunity" style="swimlane;fontStyle=0;childLayout=stackLayout;horizontal=1;startSize=26;horizontalStack=0;resizeParent=1;resizeParentMax=0;resizeLast=0;collapsible=1;marginBottom=0;fillColor=#d5e8d4;strokeColor=#82b366;" vertex="1" parent="1">
          <mxGeometry x="380" y="210" width="140" height="80" as="geometry" />
        </mxCell>
        <mxCell id="2SBFcaYjBEaQ_yufKXcj-11" value="Vertrag" style="swimlane;fontStyle=0;childLayout=stackLayout;horizontal=1;startSize=26;horizontalStack=0;resizeParent=1;resizeParentMax=0;resizeLast=0;collapsible=1;marginBottom=0;fillColor=#fff2cc;strokeColor=#d6b656;" vertex="1" parent="1">
          <mxGeometry x="380" y="390" width="140" height="90" as="geometry" />
        </mxCell>
        <mxCell id="2SBFcaYjBEaQ_yufKXcj-15" value="MD in c&lt;br&gt;harge" style="text;html=1;align=center;verticalAlign=middle;resizable=0;points=[];autosize=1;strokeColor=#9673a6;rounded=0;fillColor=#e1d5e7;" vertex="1" parent="1">
          <mxGeometry x="380" y="425" width="60" height="30" as="geometry" />
        </mxCell>
        <mxCell id="2SBFcaYjBEaQ_yufKXcj-16" value="Close Won" style="text;html=1;align=center;verticalAlign=middle;resizable=0;points=[];autosize=1;strokeColor=none;" vertex="1" parent="1">
          <mxGeometry x="405" y="260" width="70" height="20" as="geometry" />
        </mxCell>
        <mxCell id="2SBFcaYjBEaQ_yufKXcj-17" value="" style="edgeStyle=orthogonalEdgeStyle;rounded=0;orthogonalLoop=1;jettySize=auto;html=1;shape=link;" edge="1" parent="1" source="2SBFcaYjBEaQ_yufKXcj-4" target="2SBFcaYjBEaQ_yufKXcj-15">
          <mxGeometry relative="1" as="geometry">
            <mxPoint x="340" y="420" as="targetPoint" />
            <Array as="points">
              <mxPoint x="340" y="275" />
              <mxPoint x="340" y="440" />
            </Array>
          </mxGeometry>
        </mxCell>
      </root>
    </mxGraphModel>
  </diagram>
</mxfile>
